<?xml version="1.0" standalone="no"?>
<!DOCTYPE svg PUBLIC "-//W3C//DTD SVG 1.1//EN" "http://www.w3.org/Graphics/SVG/1.1/DTD/svg11.dtd" >
<svg xmlns="http://www.w3.org/2000/svg">
<metadata>Generated by IcoMoon</metadata>
<defs>
<font id="icomoon" horiz-adv-x="1024">
<font-face units-per-em="1024" ascent="960" descent="-64" />
<missing-glyph horiz-adv-x="1024" />
<glyph unicode="&#x20;" horiz-adv-x="512" d="" />
<glyph unicode="&#xe900;" glyph-name="doneblue" d="M384.004 268.8l-179.199 179.2-59.733-59.732 238.932-238.936 512 512.001-59.732 59.733-452.268-452.267z" />
<glyph unicode="&#xe901;" glyph-name="emailaccount" d="M851.582 841.846h-732.967c-65.429 0-118.615-52.416-118.615-116.898v-493.703c0-64.482 53.186-116.898 118.615-116.898h732.77c65.426 0 118.611 52.416 118.611 116.898v493.506c0.205 64.482-52.98 117.096-118.414 117.096zM916.007 231.244c0-35.010-28.9-63.493-64.425-63.493h-732.967c-35.524 0-64.426 28.483-64.426 63.493v493.506c0 35.010 28.901 63.493 64.426 63.493h732.77c35.525 0 64.425-28.483 64.425-63.493v-493.506h0.197zM611.77 484.233l237.229 209.666c11.043 9.889 12.044 26.703 2.009 37.779-10.035 10.879-27.097 11.868-38.329 1.978l-327.151-289.378-63.824 56.174c-0.201 0.198-0.401 0.395-0.401 0.593-1.405 1.385-2.81 2.572-4.416 3.758l-259.71 229.050c-11.24 9.89-28.299 8.901-38.335-2.176s-9.032-27.89 2.208-37.779l240.041-211.446-239.038-220.544c-10.838-10.088-11.44-26.9-1.204-37.779 5.419-5.538 12.645-8.506 19.87-8.506 6.624 0 13.247 2.373 18.465 7.121l242.65 223.709 65.831-57.955c5.218-4.549 11.641-6.725 18.063-6.725s13.046 2.373 18.063 6.923l67.638 59.735 241.249-225.885c5.215-4.945 12.036-7.318 18.66-7.318 7.223 0 14.249 2.769 19.669 8.307 10.24 10.681 9.838 27.692-1 37.779l-238.237 222.918z" />
<glyph unicode="&#xe902;" glyph-name="emailfooter" d="M957.316 680.358l-424.878 231.765c-12.758 6.955-28.118 6.955-40.875 0l-424.832-231.765c-41.173-22.4-66.731-65.45-66.731-112.384v-461.31c0-70.576 57.429-128 128-128h768c70.568 0 128 57.424 128 128v461.31c0 46.934-25.556 89.984-66.684 112.384zM107.562 605.436l404.438 220.629 404.436-220.586c13.7-7.51 22.228-21.846 22.228-37.504v-53.291l-401.662-209.791c-15.402-7.979-34.602-7.979-49.877-0.086l-401.792 209.877v53.291c0 15.658 8.533 29.994 22.229 37.462z" />
<glyph unicode="&#xe903;" glyph-name="mailicon" d="M21.375 746.167c140.54-115.054 387.144-317.471 459.624-380.584 9.73-8.518 20.166-12.849 31-12.849 10.812 0 21.23 4.29 30.938 12.768 72.542 63.176 319.147 265.611 459.691 380.665 8.748 7.15 10.079 19.716 2.999 28.457-16.377 20.198-40.792 31.778-66.962 31.778h-853.331c-26.166 0-50.584-11.581-66.958-31.78-7.084-8.738-5.75-21.305 3-28.455zM1011.624 683.818c-7.563 3.403-16.457 2.215-22.747-2.981-155.86-127.72-354.773-291.43-417.357-345.945-35.126-30.651-83.876-30.651-119.084 0.040-66.708 58.101-290.084 241.667-417.312 345.906-6.334 5.197-15.25 6.343-22.75 2.981-7.54-3.386-12.374-10.676-12.374-18.711v-518.619c0-45.495 38.27-82.491 85.334-82.491h853.337c47.060 0 85.328 36.996 85.328 82.491v518.619c0 8.035-4.835 15.345-12.376 18.708z" />
<glyph unicode="&#xe904;" glyph-name="mapfooter" d="M511.997 960c-204.49 0-370.854-166.364-370.854-370.852 0-253.776 331.878-626.334 346.008-642.067 13.272-14.782 36.443-14.76 49.692 0 14.13 15.733 346.006 388.291 346.006 642.067 0 204.488-166.364 370.852-370.852 370.852zM511.997 402.562c-102.884 0-186.585 83.702-186.585 186.586s83.702 186.584 186.585 186.584c102.882 0 186.582-83.702 186.582-186.586s-83.7-186.584-186.582-186.584z" />
<glyph unicode="&#xe905;" glyph-name="phonefooter" d="M967.109 248.888c-70.824 0-139.374 11.378-203.088 32.426-19.632 6.259-42.101 1.706-57.743-13.939l-125.155-125.442c-161.28 81.92-292.979 213.621-374.899 374.616l125.155 125.725c15.645 15.645 20.195 38.115 13.939 57.741-21.048 63.715-32.427 132.266-32.427 203.093-0.002 31.576-25.317 56.891-56.891 56.891h-199.112c-31.288 0-56.888-25.315-56.888-56.888 0-534.187 432.925-967.112 967.109-967.112 31.576 0 56.891 25.315 56.891 56.891v199.109c0 31.576-25.315 56.888-56.891 56.888z" />
<glyph unicode="&#xe906;" glyph-name="phoneicon" d="M967.109 248.888c-70.824 0-139.374 11.378-203.088 32.426-19.632 6.259-42.101 1.706-57.743-13.939l-125.155-125.442c-161.28 81.92-292.979 213.621-374.899 374.616l125.155 125.725c15.645 15.645 20.195 38.115 13.939 57.741-21.048 63.715-32.427 132.266-32.427 203.093-0.002 31.576-25.317 56.891-56.891 56.891h-199.112c-31.288 0-56.888-25.315-56.888-56.888 0-534.187 432.925-967.112 967.109-967.112 31.576 0 56.891 25.315 56.891 56.891v199.109c0 31.576-25.315 56.888-56.891 56.888z" />
<glyph unicode="&#xe907;" d="M188.475 546.225l-12.625 9.841 243.491 312.2 331.049-202.719-8.338-13.665-318.871 195.279-234.706-300.935z" />
<glyph unicode="&#xe908;" d="M425.503 766.85c37.816 0 68.47 30.655 68.47 68.469s-30.653 68.469-68.47 68.469c-37.814 0-68.467-30.655-68.467-68.469s30.653-68.469 68.467-68.469z" />
<glyph unicode="&#xe909;" d="M425.5 799.635c19.709 0 35.684 15.976 35.684 35.683s-15.974 35.683-35.684 35.683c-19.707 0-35.681-15.976-35.681-35.683s15.974-35.683 35.681-35.683z" />
<glyph unicode="&#xe90a;" d="M843.272 679.575l-767.831-146.406c-41.665-7.944-69-48.159-61.056-89.825l76.516-401.288c7.944-41.664 48.16-69 89.825-61.056l767.831 146.406c41.667 7.944 69.002 48.161 61.056 89.825l-76.516 401.288c-7.944 41.667-48.159 69.002-89.825 61.056z" />
<glyph unicode="&#xe90b;" d="M483.561 201.777c-2.588-3.709-6.564-6.223-11.016-7.004-4.452-0.778-9.044 0.233-12.739 2.842l-111.483 78.254c-11.569 8.118-14.367 24.082-6.244 35.633l9.797 13.962c8.123 11.569 24.067 14.364 35.635 6.244l69.599-48.85 131.988 188.070c8.123 11.569 24.084 14.367 35.638 6.244l13.96-9.8c11.569-8.12 14.364-24.079 6.244-35.633l-161.38-229.962z" />
<glyph unicode="&#xe90c;" glyph-name="productexist" d="M994.725 820.012c-15.064 15.090-39.509 15.116-54.574 0.064l-462.984-461.761-167.044 181.423c-14.434 15.668-38.838 16.684-54.532 2.252-15.682-14.434-16.686-38.85-2.252-54.532l194.252-210.961c7.114-7.731 17.070-12.225 27.568-12.442 0.282-0.011 0.554-0.011 0.824-0.011 10.202 0 20.016 4.050 27.246 11.258l491.416 490.127c15.104 15.050 15.132 39.492 0.080 54.582zM985.407 486.594c-21.316 0-38.593-17.276-38.593-38.594 0-239.764-195.049-434.813-434.813-434.813-239.752 0-434.814 195.049-434.814 434.813 0 239.752 195.062 434.814 434.814 434.814 21.316 0 38.594 17.276 38.594 38.592 0 21.318-17.278 38.594-38.594 38.594-282.32 0-512-229.68-512-512 0-282.305 229.68-512 512-512 282.305 0 512 229.695 512 512 0 21.316-17.277 38.594-38.593 38.594z" />
<glyph unicode="&#xe90d;" d="M188.649 546.094l234.706 300.951 318.871-195.279 8.335 13.65-331.046 202.719-243.491-312.2 12.625-9.841z" />
<glyph unicode="&#xe90e;" d="M425.613 766.736c-37.816 0-68.47 30.654-68.47 68.469s30.653 68.469 68.47 68.469c37.814 0 68.467-30.654 68.467-68.469s-30.653-68.469-68.467-68.469z" />
<glyph unicode="&#xe90f;" d="M425.61 799.522c-19.707 0-35.681 15.976-35.681 35.683s15.974 35.683 35.681 35.683c19.707 0 35.684-15.976 35.684-35.683s-15.977-35.683-35.684-35.683z" />
<glyph unicode="&#xe910;" d="M948.559 153.116l-767.831-146.406c-41.665-7.946-81.881 19.389-89.825 61.056l-76.516 401.288c-7.944 41.664 19.391 81.882 61.056 89.825l767.831 146.407c41.667 7.944 81.882-19.392 89.825-61.056l76.516-401.288c7.944-41.667-19.389-81.882-61.056-89.825z" />
<glyph unicode="&#xe911;" d="M462.81 347.85l-88 53.821c-9.723 5.947-12.785 18.647-6.835 28.36l7.176 11.73c5.947 9.725 18.65 12.787 28.36 6.835l87.997-53.816 53.819 88.010c5.944 9.723 18.647 12.785 28.36 6.835l11.745-7.171c9.723-5.949 12.785-18.652 6.835-28.362l-53.829-88.015 87.997-53.819c9.725-5.947 12.787-18.65 6.835-28.362l-7.176-11.73c-5.947-9.723-18.65-12.785-28.36-6.835l-88 53.819-53.816-87.997c-5.949-9.725-18.652-12.787-28.362-6.838l-11.732 7.176c-9.723 5.949-12.785 18.652-6.835 28.362l53.821 87.997z" />
<glyph unicode="&#xe912;" glyph-name="searchicon" d="M1017.748-27.581l-311.572 311.572c64.717 71.854 104.494 166.591 104.494 270.677-0.005 223.498-181.837 405.332-405.336 405.332s-405.334-181.834-405.334-405.334c0-223.499 181.834-405.336 405.334-405.336 104.086 0 198.821 39.777 270.68 104.494l311.567-311.572c4.168-4.168 9.631-6.252 15.089-6.252s10.916 2.084 15.084 6.252c8.33 8.33 8.33 21.832-0.005 30.167zM405.334 192c-199.958 0-362.666 162.688-362.666 362.666s162.708 362.668 362.666 362.668c199.958 0 362.666-162.688 362.666-362.668 0-199.978-162.708-362.666-362.666-362.666z" />
<glyph unicode="&#xe913;" glyph-name="useraccount" d="M504.718 466.735c67.765 0 126.437 24.305 174.39 72.257 47.937 47.945 72.25 106.609 72.25 174.382 0 67.75-24.304 126.422-72.257 174.383-47.953 47.937-106.625 72.242-174.382 72.242-67.774 0-126.438-24.305-174.383-72.25s-72.257-106.617-72.257-174.375c0-67.773 24.312-126.445 72.257-174.39 47.961-47.938 106.633-72.25 174.383-72.25zM372.772 845.321c36.789 36.789 79.945 54.672 131.946 54.672 51.992 0 95.156-17.883 131.953-54.672 36.789-36.797 54.68-79.961 54.68-131.946 0-52-17.891-95.156-54.68-131.953-36.797-36.797-79.961-54.679-131.953-54.679-51.985 0-95.141 17.89-131.946 54.679-36.797 36.789-54.688 79.953-54.688 131.953 0 51.985 17.891 95.149 54.688 131.946zM936.259 172.593c-1.386 19.953-4.183 41.719-8.294 64.703-4.159 23.157-9.515 45.047-15.919 65.055-6.624 20.679-15.612 41.102-26.75 60.672-11.54 20.312-25.104 38-40.322 52.554-15.911 15.227-35.399 27.469-57.926 36.398-22.453 8.883-47.336 13.383-73.953 13.383-10.453 0-20.563-4.289-40.086-17-12.015-7.836-26.070-16.898-41.757-26.922-13.414-8.547-31.586-16.555-54.032-23.805-21.899-7.086-44.133-10.68-66.086-10.68-21.937 0-44.171 3.593-66.086 10.68-22.422 7.242-40.602 15.25-53.992 23.797-15.539 9.93-29.601 18.992-41.797 26.938-19.508 12.711-29.617 17-40.071 17-26.625 0-51.5-4.508-73.945-13.399-22.515-8.914-42.008-21.156-57.937-36.398-15.219-14.562-28.781-32.242-40.313-52.546-11.117-19.57-20.118-39.985-26.742-60.68-6.398-20.007-11.75-41.89-15.907-65.047-4.124-22.953-6.914-44.727-8.297-64.726-1.36-19.552-2.046-39.906-2.046-60.465 0-53.461 16.992-96.729 50.5-128.646 33.094-31.492 76.875-47.458 130.133-47.458h493.062c53.242 0 97.022 15.967 130.128 47.458 33.508 31.894 50.507 75.177 50.507 128.654-0.008 20.63-0.709 40.984-2.072 60.481zM846.446 26.939c-21.866-20.819-50.901-30.933-88.759-30.933h-493.054c-37.868 0-66.899 10.114-88.758 30.925-21.446 20.409-31.868 48.278-31.868 85.173 0 19.18 0.633 38.132 1.899 56.32 1.234 17.84 3.757 37.441 7.5 58.27 3.695 20.571 8.398 39.875 13.993 57.352 5.367 16.757 12.687 33.351 21.766 49.336 8.664 15.234 18.633 28.305 29.632 38.836 10.29 9.852 23.258 17.914 38.539 23.961 14.133 5.594 30.016 8.657 47.258 9.118 2.102-1.117 5.844-3.25 11.907-7.203 12.335-8.038 26.555-17.21 42.273-27.249 17.719-11.297 40.547-21.5 67.82-30.305 27.883-9.016 56.32-13.594 84.547-13.594s56.672 4.578 84.539 13.586c27.297 8.821 50.117 19.016 67.86 30.329 16.085 10.281 29.906 19.187 42.242 27.234 6.063 3.946 9.805 6.086 11.907 7.203 17.25-0.461 33.133-3.523 47.273-9.118 15.273-6.046 28.245-14.117 38.532-23.961 10.996-10.524 20.968-23.594 29.633-38.843 9.082-15.977 16.416-32.578 21.772-49.32 5.6-17.5 10.311-36.797 13.997-57.352 3.734-20.867 6.27-40.476 7.507-58.285v-0.016c1.268-18.117 1.914-37.061 1.922-56.296-0.008-36.903-10.437-64.764-31.878-85.165z" />
<glyph unicode="&#xe914;" glyph-name="headercar" d="M952.315 386.125l-26.516 106.071c7.25 1.539 12.69 7.972 12.69 15.677v17.101c0 37.133-30.211 67.341-67.341 67.341h-120.783v35.274c0 18.271-14.863 33.137-33.137 33.137h-224.586l136.479 54.591c8.223 3.288 12.219 12.62 8.932 20.842-3.287 8.22-12.613 12.222-20.841 8.932l-111.749-44.698c34.053 21.848 67.743 45.894 80.568 62.71 24.97 32.738 18.647 79.686-14.093 104.656-32.737 24.972-79.685 18.646-104.655-14.092-18.245-23.924-42.317-91.146-57.897-138.516-15.58 47.366-39.652 114.592-57.894 138.516-24.968 32.738-71.918 39.060-104.657 14.092s-39.060-71.916-14.092-104.656c12.826-16.818 46.513-40.862 80.569-62.71l-111.749 44.698c-8.226 3.294-17.554-0.71-20.842-8.932-3.29-8.222 0.71-17.554 8.932-20.842l136.479-54.591h-224.587c-18.272 0-33.136-14.866-33.136-33.137v-290.739c0-8.855 7.178-16.036 16.034-16.036 8.854 0 16.034 7.178 16.034 16.036v290.739c0 0.589 0.478 1.068 1.068 1.068h615.681c0.591 0 1.070-0.479 1.070-1.068v-290.744c0-8.852 7.178-16.033 16.033-16.033 8.852 0 16.033 7.178 16.033 16.033v18.176h189.133c0.018 0 0.031-0.003 0.049-0.003s0.036 0 0.054 0c23.27-0.018 43.031-15.293 49.815-36.342h-49.856c-8.855 0-16.033-7.178-16.033-16.033v-34.204c0-27.702 22.536-50.237 50.237-50.237h18.171v-70.546h-41.923c-13.773 39.764-51.574 68.411-95.964 68.411s-82.194-28.646-95.964-68.411h-7.721v120.786c0 8.852-7.178 16.033-16.033 16.033s-16.033-7.178-16.033-16.033v-120.783h-332.659c-13.77 39.762-51.574 68.408-95.964 68.408s-82.193-28.644-95.963-68.408h-92.162c-0.59 0-1.068 0.476-1.068 1.068v35.274h69.478c8.854 0 16.034 7.178 16.034 16.033s-7.178 16.033-16.034 16.033h-153.92c-8.854 0-16.034-7.178-16.034-16.033s7.178-16.033 16.034-16.033h52.376v-35.274c0-18.273 14.864-33.137 33.136-33.137h86.608c-0.004-0.356-0.028-0.709-0.028-1.068 0-55.99 45.554-101.545 101.543-101.545s101.545 45.555 101.545 101.545c0 0.361-0.023 0.712-0.028 1.068h361.339c-0.003-0.356-0.026-0.709-0.026-1.068 0-55.99 45.553-101.545 101.542-101.545s101.545 45.555 101.545 101.545c0 0.361-0.026 0.712-0.028 1.068h52.406c8.855 0 16.033 7.178 16.033 16.033v171.023c0.003 42.227-31.153 77.312-71.683 83.479zM345.8 717.883c-63.245 39.302-82.004 57.384-87.56 64.668-14.246 18.678-10.638 45.464 8.041 59.71 7.7 5.872 16.778 8.71 25.787 8.71 12.844 0 25.551-5.772 33.925-16.752 15.511-20.336 39.8-88.782 55.836-138.104-10.821 6.372-23.26 13.83-36.029 21.768zM436.946 696.118c16.036 49.319 40.325 117.763 55.834 138.103 14.246 18.678 41.032 22.284 59.709 8.040 18.68-14.246 22.287-41.032 8.044-59.71-5.555-7.282-24.315-25.366-87.557-64.666-12.764-7.936-25.206-15.395-36.029-21.767zM750.364 560.251h120.783c19.451 0 35.274-15.823 35.274-35.274v-1.068h-156.058v36.342zM750.364 387.090v104.75h142.469l26.189-104.75h-168.658zM289.669 45.043c-38.309 0-69.477 31.168-69.477 69.478s31.168 69.478 69.477 69.478c38.31 0 69.478-31.168 69.478-69.478s-31.168-69.478-69.478-69.478zM854.047 45.043c-38.31 0-69.478 31.168-69.478 69.478s31.168 69.478 69.478 69.478c38.31 0 69.478-31.168 69.478-69.478s-31.168-69.478-69.478-69.478zM991.933 250.271h-18.171c-10.020 0-18.173 8.154-18.173 18.173v18.171h36.342v-36.344h0.003zM289.661 147.656c-18.273 0-33.137-14.863-33.137-33.137 0-18.271 14.863-33.134 33.137-33.134 18.271 0 33.137 14.863 33.137 33.134 0 18.273-14.866 33.137-33.137 33.137zM854.036 147.656c-18.273 0-33.137-14.863-33.137-33.137 0-18.271 14.863-33.134 33.137-33.134 18.271 0 33.134 14.863 33.134 33.134 0 18.273-14.863 33.137-33.134 33.137zM665.915 216.067h-239.432c-8.852 0-16.033-7.178-16.033-16.036 0-8.855 7.178-16.033 16.033-16.033h239.432c8.855 0 16.036 7.178 16.036 16.033 0 8.858-7.178 16.036-16.036 16.036zM255.462 284.475h-205.228c-8.854 0-16.034-7.178-16.034-16.033 0-8.858 7.178-16.036 16.034-16.036h205.228c8.853 0 16.034 7.178 16.034 16.036 0 8.855-7.181 16.033-16.034 16.033zM403.2 652.8c10.604 0 19.2-8.596 19.2-19.2v-371.2c0-10.604-8.596-19.2-19.2-19.2s-19.2 8.596-19.2 19.2v371.2c0 10.604 8.596 19.2 19.2 19.2z" />
<glyph unicode="&#xe915;" glyph-name="headersmile" d="M727.204 331.022c-9.171 8.212-23.261 7.414-31.433-1.737-46.436-51.888-113.394-81.629-183.763-81.629-70.345 0-137.327 29.741-183.763 81.629-8.214 9.15-22.261 9.949-31.432 1.737-9.171-8.192-9.928-22.262-1.736-31.433 54.873-61.305 133.942-96.457 216.932-96.457 83.010 0 162.083 35.172 216.932 96.457 8.192 9.171 7.414 23.241-1.737 31.433zM512 960c-282.312 0-512-229.688-512-512s229.688-512 512-512c282.313 0 512 229.687 512 512s-229.687 512-512 512zM512-19.476c-257.781 0-467.478 209.695-467.478 467.476s209.697 467.478 467.478 467.478c257.782 0 467.476-209.697 467.476-467.478s-209.695-467.476-467.476-467.476zM690.106 603.825c-61.374 0-111.305-49.931-111.305-111.306 0-12.288 9.97-22.258 22.258-22.258s22.262 9.97 22.262 22.258c0 36.819 29.962 66.784 66.785 66.784 36.819 0 66.781-29.965 66.781-66.784 0-12.288 9.974-22.258 22.262-22.258s22.258 9.97 22.258 22.258c0 61.374-49.93 111.306-111.301 111.306zM400.687 492.519c0-12.288 9.974-22.258 22.262-22.258s22.262 9.97 22.262 22.258c0 61.374-49.933 111.306-111.306 111.306s-111.304-49.931-111.304-111.306c0-12.288 9.973-22.258 22.261-22.258s22.261 9.97 22.261 22.258c0 36.819 29.963 66.784 66.782 66.784s66.783-29.965 66.783-66.784z" />
<glyph unicode="&#xe916;" glyph-name="vectordownproduct" d="M1007.632 699.879l-33.542 33.776c-10.556 10.548-24.601 16.359-39.612 16.359-15.003 0-29.063-5.811-39.62-16.359l-382.63-382.646-383.070 383.070c-10.539 10.548-24.601 16.351-39.603 16.351s-29.072-5.803-39.62-16.351l-33.551-33.567c-21.845-21.829-21.845-57.386 0-79.216l456.092-457.731c10.539-10.54 24.584-17.967 39.72-17.967h0.175c15.010 0 29.054 7.435 39.595 17.967l455.666 456.491c10.557 10.539 16.351 25.008 16.368 40.011 0 15.011-5.811 29.28-16.368 39.811z" />
<glyph unicode="&#xe917;" glyph-name="vectorupproduct" d="M16.367 196.121l33.543-33.776c10.556-10.548 24.601-16.359 39.612-16.359 15.002 0 29.063 5.811 39.62 16.359l382.63 382.646 383.070-383.070c10.539-10.548 24.601-16.351 39.604-16.351 15.002 0 29.071 5.803 39.62 16.351l33.551 33.567c21.845 21.829 21.845 57.386 0 79.216l-456.092 457.731c-10.539 10.54-24.584 17.966-39.72 17.966h-0.175c-15.010 0-29.054-7.434-39.595-17.966l-455.667-456.491c-10.556-10.539-16.351-25.008-16.367-40.011 0-15.011 5.811-29.28 16.367-39.811z" />
<glyph unicode="&#xe918;" glyph-name="headerbag" d="M879.268 696.94c-0.938 11.087-10.277 19.582-21.406 19.473h-162.677v61.647c0 100.485-81.461 181.94-181.94 181.94-100.483 0-181.939-81.455-181.939-181.94v-61.647h-162.675c-11.079-0.042-20.326-8.453-21.405-19.473l-56.078-644.716c-2.55-29.893 7.55-59.49 27.859-81.588 20.301-22.090 48.938-34.656 78.946-34.632h630.794c30.007-0.025 58.647 12.542 78.946 34.632 20.308 22.098 30.417 51.696 27.869 81.588l-56.295 644.716zM374.116 778.060c0 76.839 62.292 139.13 139.129 139.13 76.841 0 139.133-62.291 139.133-139.13v-61.647h-278.262v61.647zM876.057-0.426c-12.108-13.328-29.307-20.877-47.309-20.763h-631.011c-18.002-0.008-35.175 7.545-47.349 20.804-12.166 13.271-18.21 31.035-16.647 48.972l54.365 625.017h143.202v-133.562c-34.423-10.592-55.919-44.765-50.56-80.384 5.351-35.611 35.953-61.948 71.965-61.948s66.604 26.337 71.966 61.948c5.349 35.619-16.146 69.792-50.561 80.384v133.78h278.262v-133.78c-34.423-10.592-55.923-44.765-50.561-80.384 5.349-35.611 35.951-61.948 71.963-61.948s66.605 26.337 71.967 61.948c5.349 35.619-16.146 69.792-50.561 80.384v133.78h142.987l54.362-625.017c1.757-18.010-4.239-35.91-16.478-49.23zM349.501 500.224c2.132-0.283 4.289-0.283 6.422 0 15.827-1.704 27.566-15.499 26.714-31.396-0.861-15.901-14.005-28.361-29.925-28.361-15.928 0-29.072 12.46-29.925 28.361-0.853 15.897 10.878 29.692 26.714 31.396zM670.573 500.224c2.13-0.283 4.289-0.283 6.418 0 15.827-1.704 27.566-15.499 26.714-31.396-0.86-15.901-14.004-28.361-29.925-28.361-15.925 0-29.069 12.46-29.921 28.361-0.856 15.897 10.875 29.692 26.714 31.396z" />
</font>
</defs>
</svg>
